<svg width="16" height="17" viewBox="0 0 16 17" fill="none" xmlns="http://www.w3.org/2000/svg">
<g clip-path="url(#clip0_46_173)">
<rect y="0.6875" width="16" height="16" fill="#29377E"/>
<path d="M8 3.1875L8.5 0.6875H0V1.1875V16.6875H7V15.1875L8 13.6875V11.6875L7.5 10.6875L6 8.6875V6.6875L8 3.1875Z" fill="#F8AC1F"/>
<path d="M8.49004 16.6875C8.58024 16.439 8.57001 16.419 8.31803 16.3399C8.27746 16.3272 8.2372 16.3129 8.19694 16.2986C8.11515 16.2696 8.03331 16.2406 7.94921 16.2251C7.71272 16.1814 7.55558 16.0523 7.43812 15.8428C7.37613 15.7324 7.36342 15.6652 7.46663 15.5811C7.73008 15.3664 7.88257 15.0816 8.00561 14.7642C8.32423 13.9417 8.6602 13.1261 9.00144 12.313C9.16199 11.9303 9.15176 11.5621 8.96084 11.2032C8.87636 11.0445 8.79261 10.8852 8.70885 10.726C8.40359 10.1457 8.09819 9.56515 7.75673 9.00731C7.56147 8.68844 7.48151 8.3755 7.47779 8.02099L7.4777 8.01358C7.47749 7.99526 7.47727 7.97638 7.47345 7.95878C7.45082 7.85499 7.49825 7.81091 7.59588 7.81966C7.71117 7.82966 7.76758 7.77308 7.81717 7.67242C8.02824 7.24475 8.2452 6.81958 8.46804 6.39754C8.51887 6.30125 8.53251 6.22779 8.44758 6.15089C8.34313 6.05616 8.33632 5.963 8.45254 5.87047C8.48044 5.84826 8.50461 5.81919 8.52476 5.78949C8.58148 5.70571 8.63943 5.69446 8.72869 5.75291C8.83093 5.8198 8.93711 5.88078 9.04332 5.94178C9.10289 5.97598 9.1626 6.01027 9.22149 6.04553C9.281 6.08117 9.34268 6.10743 9.41179 6.09461C9.73692 6.03459 10.058 5.96832 10.1572 5.57535C10.1736 5.51032 10.2006 5.44654 10.2325 5.38777C10.2483 5.35888 10.2589 5.32209 10.2694 5.28576C10.2908 5.21204 10.3116 5.14017 10.3732 5.14017C10.4222 5.1404 10.4311 5.22964 10.4395 5.31433C10.4426 5.34582 10.4457 5.37674 10.4507 5.40215C10.4699 5.49875 10.5139 5.5147 10.6016 5.49251C10.8412 5.43123 11.0817 5.37151 11.3241 5.32306C11.4276 5.30243 11.4484 5.26178 11.4236 5.16425C11.3641 4.92791 11.3111 4.68937 11.2587 4.45085C11.2559 4.43826 11.2522 4.42539 11.2483 4.41237C11.2342 4.36427 11.2194 4.31408 11.2528 4.26984C11.3541 4.13566 11.3801 3.9779 11.4059 3.82147C11.4096 3.79887 11.4135 3.77542 11.4175 3.75296C11.42 3.73846 11.4227 3.72401 11.4255 3.70962C11.4478 3.59457 11.494 3.57113 11.5996 3.57207C12.14 3.57616 12.6805 3.57648 13.2209 3.57681L13.5814 3.57706C13.9834 3.57769 13.9859 3.57738 13.9955 3.17941C13.9976 3.09281 14.0187 3.06187 14.1086 3.06374C14.235 3.06655 14.3615 3.06609 14.488 3.06561C14.6141 3.06515 14.7412 3.06468 14.8673 3.06749C14.9615 3.06968 14.9928 3.0406 14.9922 2.944C14.9916 2.84834 14.9746 2.80302 14.8651 2.80676C14.7514 2.81058 14.6375 2.80965 14.5236 2.80871C14.3949 2.80765 14.2662 2.80659 14.1377 2.81239C14.015 2.81802 13.9809 2.77331 13.9976 2.66202C14 2.64568 13.9995 2.62896 13.9989 2.61225L13.9988 2.60857C13.9986 2.60031 13.9984 2.59206 13.9986 2.58387C13.9987 2.57845 13.9989 2.57294 13.9991 2.56737L13.9994 2.55974C14.002 2.50344 14.0046 2.44334 13.9418 2.42068C13.8809 2.39869 13.8565 2.4425 13.8329 2.48477C13.8286 2.49255 13.8242 2.5003 13.8197 2.50756C13.8164 2.513 13.8129 2.51818 13.8092 2.52291C13.7977 2.53763 13.7875 2.55299 13.7773 2.56814C13.7365 2.62921 13.6979 2.68691 13.5929 2.6864C12.3321 2.68122 11.0711 2.68241 9.81008 2.68361L9.4899 2.6839C9.41024 2.6839 9.34795 2.68297 9.35074 2.57417C9.35353 2.46887 9.41587 2.48641 9.46523 2.50029C9.47607 2.50334 9.48635 2.50624 9.49517 2.50759C9.60489 2.52385 9.65324 2.4907 9.67307 2.37847C9.69668 2.24601 9.73045 2.11539 9.76418 1.98496L9.76491 1.98215C9.77257 1.95252 9.78022 1.92291 9.78775 1.89328C9.80728 1.81669 9.80015 1.76073 9.71026 1.74166C9.64239 1.72697 9.61759 1.67664 9.59497 1.61223C9.4527 1.20801 9.17594 0.928217 8.79285 0.7494C8.78681 0.746569 8.78043 0.744311 8.77389 0.742342C8.76751 0.740418 8.76096 0.738768 8.75441 0.737115C8.7241 0.729486 8.69324 0.721715 8.67723 0.6875H7.80126L7.79974 0.723492C7.76235 0.749067 7.72459 0.774891 7.6887 0.802548C7.38194 1.03857 7.19127 1.329 7.24588 1.73822C7.25805 1.83044 7.26242 1.92549 7.25711 2.01864C7.24837 2.16839 7.27864 2.285 7.44654 2.32376C7.47556 2.33064 7.53298 2.34752 7.50427 2.39442C7.49508 2.40936 7.48729 2.42567 7.47991 2.44243C7.47669 2.44974 7.47354 2.45714 7.47039 2.46455C7.44228 2.53071 7.41376 2.59785 7.3267 2.612C7.26553 2.6217 7.20156 2.62419 7.14009 2.61857C6.83582 2.59106 6.5974 2.72767 6.38176 2.92025C6.11401 3.15941 5.91585 3.45139 5.76356 3.7737C5.59723 4.12603 5.43651 4.48117 5.2811 4.8385C5.23772 4.93854 5.18405 4.9748 5.07295 4.9748C5.01593 4.9747 4.96957 4.97317 4.93149 4.97191C4.84487 4.96906 4.80098 4.96762 4.77231 4.98776C4.74311 5.00826 4.72948 5.05112 4.702 5.13759C4.69066 5.17326 4.67696 5.21635 4.65884 5.26835C4.59222 5.45971 4.52681 5.65153 4.46141 5.84336C4.36749 6.1188 4.27357 6.39424 4.17607 6.66827C4.13769 6.77612 4.15485 6.83397 4.25284 6.8968C4.59083 7.11304 4.58888 7.11951 4.4764 7.49154L4.46879 7.51673C4.40419 7.7315 4.32025 7.92439 4.12895 8.05476C4.0656 8.09789 4.03814 8.16417 4.01224 8.23388C3.97124 8.34457 3.92925 8.45498 3.88727 8.56536C3.82041 8.74113 3.75318 8.91793 3.69018 9.09516C3.65586 9.19176 3.61185 9.23646 3.5017 9.23334C3.29355 9.2274 3.28574 9.24834 3.26577 9.46593C3.24889 9.64934 3.23491 9.83307 3.22093 10.0168C3.18325 10.512 3.1455 11.008 3.05107 11.4977C3.03266 11.5921 2.99958 11.6612 2.92156 11.7152C2.87199 11.7499 2.82492 11.7881 2.77779 11.8264C2.7524 11.847 2.72644 11.8681 2.70062 11.8881C2.43287 12.096 2.23595 12.3477 2.1052 12.6697C1.89463 13.188 1.67303 13.702 1.45145 14.2159C1.3233 14.5132 1.19515 14.8104 1.06913 15.1084C0.97177 15.3385 0.901865 15.5764 0.981129 15.8306C0.99548 15.876 0.973354 15.9117 0.951592 15.9468L0.948123 15.9524L0.5 16.6875H2.77779C2.77779 16.6875 2.89646 16.6875 2.92156 16.4375C2.94666 16.1875 2.12799 16.1984 2.13796 16.0507C2.14733 15.911 2.19039 15.7912 2.27715 15.6793C2.73262 15.0913 3.18664 14.5023 3.64066 13.9132L3.6427 13.9106L3.65134 13.8994C3.889 13.591 4.12667 13.2827 4.36456 12.9745C4.47971 12.8254 4.57427 12.6662 4.64979 12.493C4.81554 12.1123 4.98236 11.7322 5.14919 11.3519L5.15073 11.3484L5.15166 11.3463L5.22185 11.1863C5.37944 10.8271 5.5369 10.4678 5.69334 10.1081C5.73547 10.0111 5.78259 9.92892 5.89712 9.92173C5.98474 9.91618 6.02169 9.98016 6.05687 10.0411C6.06329 10.0522 6.06965 10.0632 6.07625 10.0737C6.13365 10.1649 6.19066 10.2564 6.24766 10.3478C6.50675 10.7636 6.76594 11.1796 7.06238 11.5708C7.16474 11.7059 7.27334 11.8284 7.43437 11.8913C7.5439 11.9338 7.55482 11.9935 7.4974 12.0945C7.40646 12.2545 7.31797 12.416 7.22947 12.5774L7.22897 12.5783C7.13037 12.7582 7.03142 12.9387 6.92944 13.1167C6.85735 13.2424 6.82802 13.3768 6.80524 13.515C6.67105 14.3263 6.48474 15.126 6.24227 15.911C6.16332 16.1673 6.11213 16.4218 6.10371 16.6875H8.49004Z" fill="white"/>
</g>
<defs>
<clipPath id="clip0_46_173">
<rect y="0.6875" width="16" height="16" rx="2" fill="white"/>
</clipPath>
</defs>
</svg>
